<svg width="227" height="70" viewBox="0 0 227 70" fill="none" xmlns="http://www.w3.org/2000/svg">
<path d="M14.7698 0H36.8298V14.5991H51.4102V36.6874H36.8298V51.4762H14.7698V36.6874H0V14.5612L14.7698 14.5991V0Z" fill="#0099D8"/>
<path d="M66.0095 7.67877C66.0095 1.49783 69.4747 0.0379198 75.3069 0.0379198H82.919C92.1217 0.0379198 93.3147 2.02871 93.2578 8.00108H86.7819V7.41333C86.7819 5.89653 85.6836 5.46046 83.7522 5.46046H76.6892C73.2808 5.46046 72.637 7.07205 72.637 9.68852V11.9637C72.637 15.0352 73.2808 16.1918 76.3294 16.1918H83.2409C86.157 16.1918 87.028 15.9074 87.028 13.2719H93.504V15.2627C93.504 18.8272 92.2164 21.6143 85.7215 21.6143H75.288C69.4558 21.6143 65.9906 20.1544 65.9906 13.9735V7.67877H66.0095Z" fill="#0099D8"/>
<path d="M98.4273 0.265439H117.95C122.93 0.265439 124.274 2.74919 124.274 6.54117V7.88732C124.274 10.7124 123.631 12.3808 120.658 13.0823V13.1392C122.589 13.4805 124.18 14.3337 124.18 17.8034V21.3868H117.704V18.8462C117.704 16.6278 117.06 15.9074 115.053 15.9074H104.903V21.3868H98.4273V0.265439ZM104.903 10.6365H115.602C117.344 10.6365 117.988 9.935 117.988 8.4182V7.73564C117.988 5.87757 117.06 5.51734 115.015 5.51734H104.903V10.6365Z" fill="#0099D8"/>
<path d="M128.63 7.67877C128.63 1.49783 132.095 0.0379198 137.927 0.0379198H148.304C154.136 0.0379198 157.601 1.49783 157.601 7.67877V13.9735C157.601 20.1544 154.136 21.6143 148.304 21.6143H137.927C132.095 21.6143 128.63 20.1544 128.63 13.9735V7.67877ZM135.276 11.9637C135.276 15.0352 135.92 16.1918 138.968 16.1918H147.243C150.311 16.1918 150.936 15.0163 150.936 11.9637V9.68852C150.936 7.07205 150.292 5.46046 146.883 5.46046H139.309C135.901 5.46046 135.257 7.07205 135.257 9.68852V11.9637H135.276Z" fill="#0099D8"/>
<path d="M162.278 0.265439H168.754V21.3868H162.278V0.265439Z" fill="#0099D8"/>
<path d="M182.274 10.7882L172.655 0.265439H181.024L187.576 7.64085L194.128 0.265439H202.497L192.878 10.7882L203.217 21.3678H194.544L187.576 13.6891L180.608 21.3678H171.935L182.274 10.7882Z" fill="#0099D8"/>
<path d="M66.0474 30.3548H84.6611C89.8116 30.3548 92.33 31.7579 92.33 35.8911C92.33 39.5125 91.0234 40.214 89.2056 40.7259V40.8207C92.027 41.162 93.0874 42.6788 93.0874 45.864C93.0874 50.5092 90.3418 51.4572 86.6493 51.4572H66.0474V30.3548ZM72.5234 46.3949H84.1119C85.5132 46.3949 86.441 46.0726 86.441 44.8402C86.441 43.4182 85.5132 43.0959 84.1119 43.0959H72.5234V46.3949ZM72.5234 38.7351H83.9794C85.1723 38.7351 85.873 38.299 85.873 37.1046C85.873 35.8722 85.1723 35.4361 83.9794 35.4361H72.5234V38.7351Z" fill="#0099D8"/>
<path d="M97.4426 30.3548H103.919V46.0536H118.461V51.4762H97.4426V30.3548Z" fill="#0099D8"/>
<path d="M121.623 30.3548H144.687V35.2465H128.08V38.6213H143.816V43.0011H128.08V46.3759H145.066V51.4572H121.623V30.3548Z" fill="#0099D8"/>
<path d="M149.44 30.3548H155.916V42.546C155.916 45.2384 156.881 46.2812 159.532 46.2812H165.933C168.584 46.2812 169.549 45.2384 169.549 42.546V30.3548H176.025V43.9491C176.025 49.201 173.318 51.7037 167.372 51.7037H158.112C152.167 51.7037 149.459 49.201 149.459 43.9491V30.3548H149.44Z" fill="#0099D8"/>
<path d="M180.816 30.3548H203.88V35.2465H187.273V38.6213H203.009V43.0011H187.273V46.3759H204.258V51.4572H180.816V30.3548Z" fill="#0099D8"/>
<path d="M214.237 38.8678H213.291L210.072 31.0753H210.053V38.8678H209.087V30.3548H210.753L213.764 37.6354L216.775 30.3548H218.441V38.8678H217.475V31.0753H217.456L214.237 38.8678Z" fill="#0099D8"/>
<path d="M219.956 30.3548H224.084C225.106 30.3548 227 30.4875 227 33.6349V35.6636C227 36.4978 226.867 38.8678 224.311 38.8678H219.956V30.3548ZM224.084 38.0146C225.788 38.0146 226.015 37.0098 226.034 35.493V33.2557C226.034 32.7817 225.864 31.208 224.235 31.208H220.903V38.0146H224.084Z" fill="#0099D8"/>
<path d="M97.3858 60.8044H104.922C106.645 60.8044 107.763 61.1268 108.387 61.7904C108.937 62.416 109.164 63.4399 109.164 65.4496C109.164 67.4783 108.899 68.4832 108.217 69.1089C107.649 69.6398 106.683 69.8862 105.149 69.8862H97.3858V60.8044ZM104.695 68.2367C105.433 68.2367 105.926 68.1419 106.304 67.9334C106.835 67.649 107.062 66.9475 107.062 65.5444C107.062 63.0228 106.664 62.5108 104.714 62.5108H99.5066V68.2178H104.695V68.2367Z" fill="#0099D8"/>
<path d="M122.589 60.8044V66.5303C122.589 68.2557 122.324 68.9762 121.453 69.4691C120.677 69.9242 119.9 70 116.681 70C113.538 70 112.591 69.8104 111.909 69.052C111.455 68.5211 111.303 67.8954 111.303 66.208V60.8044H113.405V65.5634C113.405 66.7768 113.405 66.7768 113.481 67.156C113.633 68.123 114.163 68.2936 116.889 68.2936C118.12 68.2936 119.237 68.2367 119.559 68.1609C120.09 68.0282 120.374 67.7059 120.449 67.1181C120.468 66.9475 120.468 66.9475 120.487 65.6961V60.8044H122.589Z" fill="#0099D8"/>
<path d="M140.351 69.8483L139.385 69.1658C138.59 69.8862 137.87 70 134.121 70C131.602 70 130.466 69.9242 129.86 69.7156C128.97 69.3933 128.535 68.9003 128.289 67.9523C128.175 67.4025 128.118 66.8147 128.118 65.4496C128.118 63.876 128.156 63.3072 128.289 62.7573C128.535 61.7714 129.084 61.2216 130.088 60.9561C130.788 60.7855 131.792 60.7096 133.742 60.7096C137.113 60.7096 138.268 60.8234 139.101 61.2974C139.612 61.5818 139.934 62.0748 140.086 62.8142C140.199 63.2692 140.237 64.0845 140.237 65.3738C140.237 66.701 140.218 67.175 140.086 67.7438L141.127 68.3695L140.351 69.8483ZM135.068 64.5964L138.097 66.5683C138.135 66.2459 138.154 65.8478 138.154 65.1842C138.154 63.6484 137.984 63.0038 137.567 62.7763C137.151 62.5677 136.81 62.5298 135.371 62.4729C134.67 62.454 134.613 62.454 134.31 62.454C130.258 62.454 130.258 62.4729 130.258 65.4875C130.258 68.2367 130.353 68.2936 134.537 68.2936C136.639 68.2936 137.056 68.2557 137.491 68.0092L134.216 66.0374L135.068 64.5964Z" fill="#0099D8"/>
<path d="M153.928 60.8044V66.5303C153.928 68.2557 153.662 68.9762 152.791 69.4691C152.015 69.9242 151.239 70 148.02 70C144.876 70 143.93 69.8104 143.248 69.052C142.793 68.5211 142.642 67.8954 142.642 66.208V60.8044H144.744V65.5634C144.744 66.7768 144.744 66.7768 144.819 67.156C144.971 68.123 145.501 68.2936 148.228 68.2936C149.459 68.2936 150.576 68.2367 150.898 68.1609C151.428 68.0282 151.712 67.7059 151.788 67.1181C151.807 66.9475 151.807 66.9475 151.826 65.6961V60.8044H153.928Z" fill="#0099D8"/>
<path d="M156.276 60.8044H165.933V62.3971H158.358V64.5585H165.573V65.9805H158.358V68.2936H166.027V69.8862H156.294V60.8044H156.276ZM159.684 59.2118L163.244 57.8277L163.717 59.2308L160.006 60.0271L159.684 59.2118Z" fill="#0099D8"/>
<path d="M168.035 60.8044H175.855C178.108 60.8044 178.923 61.4301 178.923 63.1744C178.923 64.0087 178.714 64.5775 178.335 64.8239C178.014 65.0325 177.748 65.1273 177.143 65.2031C177.919 65.279 178.241 65.3548 178.601 65.5634C179.017 65.8099 179.263 66.4545 179.263 67.3077C179.263 69.1468 178.411 69.8862 176.253 69.8862H168.035V60.8044ZM175.06 64.5396C175.912 64.5396 176.215 64.5016 176.442 64.3689C176.707 64.2172 176.84 63.9139 176.84 63.4968C176.84 63.0417 176.688 62.7004 176.404 62.5488C176.196 62.435 175.874 62.3781 175.268 62.3781H170.117V64.5396H175.06ZM175.495 68.3315C176.764 68.3315 177.143 68.0661 177.143 67.1371C177.143 66.6631 176.991 66.3028 176.726 66.1511C176.518 66.0374 176.12 65.9805 175.363 65.9805H170.099V68.3315H175.495Z" fill="#0099D8"/>
<path d="M181.441 60.8044H191.098V62.3971H183.524V64.5585H190.738V65.9805H183.524V68.2936H191.193V69.8862H181.46V60.8044H181.441Z" fill="#0099D8"/>
<path d="M204.239 66.7958C204.239 68.0851 204.107 68.7297 203.728 69.1468C203.103 69.8483 202.251 70 199.297 70C195.681 70 195.018 69.9242 194.204 69.4881C193.692 69.2037 193.351 68.7107 193.162 68.0092C193.048 67.5542 192.973 66.4735 192.973 65.2031C192.973 62.6625 193.238 61.8093 194.185 61.2784C194.961 60.8424 195.908 60.7286 198.767 60.7286C201.91 60.7286 202.952 60.8992 203.539 61.5439C203.917 61.961 204.126 62.7384 204.145 63.857H202.138C202.138 62.5298 201.872 62.416 198.881 62.416C196.741 62.416 196.135 62.4729 195.699 62.7004C195.188 62.9659 195.075 63.4778 195.075 65.4496C195.075 68.104 195.302 68.2936 198.123 68.2936L200.907 68.2367C201.891 68.1419 202.232 67.7817 202.232 66.8337V66.6251H204.239V66.7958Z" fill="#0099D8"/>
</svg>
