<?xml version="1.0" encoding="UTF-8"?>
<svg width="103px" height="82px" viewBox="0 0 103 82" version="1.1" xmlns="http://www.w3.org/2000/svg" xmlns:xlink="http://www.w3.org/1999/xlink">
    <title>Page 1</title>
    <defs>
        <polygon id="path-1" points="0 81.65478 102.862253 81.65478 102.862253 -2.84217094e-14 0 -2.84217094e-14"></polygon>
    </defs>
    <g id="Page-1" stroke="none" stroke-width="1" fill="none" fill-rule="evenodd">
        <g id="work-3" transform="translate(-75.000000, -40.000000)">
            <g id="Page-1" transform="translate(75.000000, 40.000000)">
                <path d="M8.43280442,49.920985 C7.64892892,49.561005 7.04830241,49.377325 5.98065984,49.377325 C4.33514177,49.377325 3.13223414,50.698345 3.13223414,53.442475 C3.13223414,55.873365 4.17878032,57.010295 5.56121406,57.010295 C6.71034659,57.010295 7.59846305,56.340765 8.43280442,55.303055 L8.43280442,49.920985 Z M8.87706948,59.521135 L8.6143988,57.790935 C7.72793695,58.847505 6.50393293,59.777795 4.75210562,59.777795 C2.11629839,59.777795 4.13654618e-05,57.840545 4.13654618e-05,53.622055 C4.13654618e-05,48.963635 2.58579639,46.896825 5.50743896,46.896825 C6.71034659,46.896825 7.67788474,47.099775 8.43280442,47.360125 L8.43280442,41.331075 L11.5670655,40.841125 L11.5670655,59.521135 L8.87706948,59.521135 Z" id="Fill-1" fill="#FFFFFF"></path>
                <path d="M19.9995803,49.327223 C18.1439257,49.327223 17.1536365,50.954513 17.1536365,53.285773 C17.1536365,55.559223 18.1691586,57.244323 19.9995803,57.244323 C21.9267972,57.244323 22.9212229,55.612933 22.9212229,53.285773 C22.9212229,50.981573 21.876745,49.327223 19.9995803,49.327223 M19.9995803,59.777713 C16.5798976,59.777713 14.0983835,57.347233 14.0983835,53.285773 C14.0983835,49.220623 16.6051305,46.766773 20.0248133,46.766773 C23.4701426,46.766773 25.9785442,49.220623 25.9785442,53.285773 C25.9785442,57.347233 23.444496,59.777713 19.9995803,59.777713" id="Fill-3" fill="#FFFFFF"></path>
                <path d="M33.3161153,59.728185 C30.8346012,59.728185 29.1642639,58.821265 29.1642639,55.976685 L29.1642639,49.561005 L27.3859627,49.561005 L27.3859627,47.019415 L29.1642639,47.019415 L29.1642639,43.064965 L32.2443361,42.598385 L32.2443361,47.019415 L34.8280229,47.019415 L35.2201675,49.561005 L32.2443361,49.561005 L32.2443361,55.460085 C32.2443361,56.467045 32.7134205,57.010295 33.9146735,57.010295 C34.2815851,57.010295 34.619541,56.986925 34.9090992,56.906975 L35.2975209,59.521135 C34.8011353,59.624865 34.22781,59.728185 33.3161153,59.728185" id="Fill-5" fill="#FFFFFF"></path>
                <path d="M43.0272779,43.60883 C41.9554988,43.60883 41.3801052,44.07213 41.3801052,45.1861 L41.3801052,47.01921 L43.7821976,47.01921 L44.1739285,49.56121 L41.3801052,49.56121 L41.3801052,59.52134 L38.2748,59.52134 L38.2748,49.56121 L36.4439647,49.56121 L36.4439647,47.01921 L38.2748,47.01921 L38.2748,44.87573 C38.2748,42.10823 40.0493783,41.07421 42.6314104,41.07421 C43.1815711,41.07421 43.6010169,41.12423 43.9137398,41.17794 L44.3307036,43.70846 C44.0179807,43.65844 43.5484827,43.60883 43.0272779,43.60883" id="Fill-7" fill="#FFFFFF"></path>
                <path d="M54.0959723,59.521176 L53.8064141,57.760636 C52.6357715,58.874606 51.2769161,59.777836 49.6040968,59.777836 C47.2293056,59.777836 46.0032333,58.353496 46.0032333,55.999686 L46.0032333,47.019456 L49.1350124,47.019456 L49.1350124,55.203876 C49.1350124,56.286686 49.6040968,57.010336 50.7279964,57.010336 C51.7186992,57.010336 52.7089884,56.390006 53.6248197,55.460126 L53.6248197,47.019456 L56.7586671,47.019456 L56.7586671,59.521176 L54.0959723,59.521176 Z" id="Fill-9" fill="#FFFFFF"></path>
                <path d="M64.1970044,59.754999 C62.3744422,59.754999 60.4914863,59.184689 59.290647,58.537709 L59.7092655,55.949789 C61.0652253,56.830469 62.7355627,57.423329 64.3033137,57.423329 C65.6609281,57.423329 66.3926831,56.933789 66.3926831,56.129779 C66.3926831,55.253609 65.8408679,54.889939 63.8338157,54.399579 C60.7810446,53.622219 59.4991289,52.742359 59.4991289,50.464399 C59.4991289,48.317229 61.223655,46.789979 64.1448839,46.789979 C65.7883337,46.789979 67.3060325,47.099939 68.559406,47.669839 L68.1403739,50.258169 C66.8870004,49.561169 65.3982574,49.120829 64.1448839,49.120829 C62.9730004,49.120829 62.3976068,49.561169 62.3976068,50.258169 C62.3976068,50.931389 62.8666912,51.290959 64.7438558,51.785419 C68.0092454,52.611979 69.2895064,53.492659 69.2895064,55.846879 C69.2895064,58.308519 67.5128598,59.754999 64.1970044,59.754999" id="Fill-11" fill="#FFFFFF"></path>
                <mask id="mask-2" fill="white">
                    <use xlink:href="#path-1"></use>
                </mask>
                <g id="Clip-14"></g>
                <path d="M71.9022731,59.52093 L75.0319839,59.52093 L75.0319839,47.01921 L71.9022731,47.01921 L71.9022731,59.52093 Z M73.4931888,44.92944 C72.4487108,44.92944 71.6143695,44.20169 71.6143695,43.1689 C71.6143695,42.10823 72.4487108,41.36162 73.4931888,41.36162 C74.5087108,41.36162 75.3471888,42.10823 75.3471888,43.1689 C75.3471888,44.20169 74.5087108,44.92944 73.4931888,44.92944 L73.4931888,44.92944 Z" id="Fill-13" fill="#FFFFFF" mask="url(#mask-2)"></path>
                <path d="M83.5943036,49.327223 C81.7423719,49.327223 80.7496008,50.954513 80.7496008,53.285773 C80.7496008,55.559223 81.7676048,57.244323 83.5943036,57.244323 C85.5273116,57.244323 86.5196691,55.612933 86.5196691,53.285773 C86.5196691,50.981573 85.4751912,49.327223 83.5943036,49.327223 M83.5943036,59.777713 C80.1746209,59.777713 77.6968297,57.347233 77.6968297,53.285773 C77.6968297,49.220623 80.2031631,46.766773 83.6211912,46.766773 C87.0677614,46.766773 89.5749221,49.220623 89.5749221,53.285773 C89.5749221,57.347233 87.0433558,59.777713 83.5943036,59.777713" id="Fill-15" fill="#FFFFFF" mask="url(#mask-2)"></path>
                <path d="M99.7320871,59.521176 L99.7320871,51.345366 C99.7320871,50.258046 99.2605209,49.507746 98.1097337,49.507746 C97.1210992,49.507746 96.1556293,50.131766 95.2406253,51.085016 L95.2406253,59.521176 L92.1080189,59.521176 L92.1080189,47.019456 L94.771541,47.019456 L95.0590309,48.780406 C96.2329827,47.670126 97.5653643,46.766896 99.2605209,46.766896 C101.610906,46.766896 102.861798,48.186726 102.861798,50.514296 L102.861798,59.521176 L99.7320871,59.521176 Z" id="Fill-16" fill="#FFFFFF" mask="url(#mask-2)"></path>
                <path d="M64.563792,17.263747 C63.7567518,16.655307 64.5815791,16.163307 64.5815791,16.163307 L64.5679285,16.171097 C67.253788,14.138317 67.902812,10.838637 66.0219245,7.921897 C64.3222177,5.290107 61.4746193,4.384827 58.7341574,5.385637 C58.7341574,5.385637 57.6524506,5.814497 57.5333181,4.813687 C56.9380691,1.936717 54.6191213,-0.000123 51.4310851,-0.000123 C47.9572137,-0.000123 45.5046554,2.298747 45.2035149,5.607447 L45.2035149,5.611547 L45.2035149,5.623027 C45.1882096,5.743567 45.0529446,6.557007 44.1917157,6.174477 L44.1958522,6.178167 C41.1447357,4.855507 37.9467719,5.864107 36.2631976,8.898107 C34.5539767,11.981307 35.4631896,15.248187 38.331057,17.078427 L38.3116153,17.070637 C38.3116153,17.070637 39.1170008,17.518357 38.3116153,18.128847 L38.3273341,18.121467 C35.6158281,20.136617 34.9399165,23.442037 36.8423141,26.391577 C38.5742859,29.080767 41.478555,29.966777 44.238045,28.902827 L44.2148803,28.915947 C45.1534627,28.533417 45.3271976,29.557187 45.3271976,29.557187 L45.3292659,29.534227 C45.9236876,32.388237 48.2293984,34.315647 51.4310851,34.315647 C54.938049,34.315647 57.3744747,32.008987 57.6640329,28.705617 C57.8166715,27.712187 58.6824506,28.148837 58.6824506,28.148837 C61.746804,29.461247 64.9385631,28.431737 66.6068321,25.425207 C68.2966112,22.379727 67.4122177,19.112847 64.563792,17.263747" id="Fill-17" fill="#242321" mask="url(#mask-2)"></path>
                <path d="M51.4310438,13.122091 C49.3011361,13.122091 47.9956422,15.175781 47.9956422,17.172071 C47.9956422,19.110551 49.3011361,21.193351 51.4310438,21.193351 C53.5609514,21.193351 54.8664454,19.110551 54.8664454,17.172071 C54.8664454,15.175781 53.5609514,13.122091 51.4310438,13.122091" id="Fill-18" fill="#F16D23" mask="url(#mask-2)"></path>
                <path d="M51.4310438,23.993323 C49.3011361,23.993323 47.9956422,26.045373 47.9956422,28.043303 C47.9956422,29.980143 49.3011361,32.062943 51.4310438,32.062943 C53.5609514,32.062943 54.8664454,29.980143 54.8664454,28.043303 C54.8664454,26.045373 53.5609514,23.993323 51.4310438,23.993323" id="Fill-19" fill="#FBC30F" mask="url(#mask-2)"></path>
                <path d="M51.4310438,2.252704 C49.3011361,2.252704 47.9956422,4.306394 47.9956422,6.304324 C47.9956422,8.239524 49.3011361,10.323964 51.4310438,10.323964 C53.5609514,10.323964 54.8664454,8.239524 54.8664454,6.304324 C54.8664454,4.306394 53.5609514,2.252704 51.4310438,2.252704" id="Fill-20" fill="#E9F5F7" mask="url(#mask-2)"></path>
                <path d="M51.4310438,2.252704 L51.4310438,1.743484 C50.815112,1.743484 50.2455096,1.894364 49.7532606,2.156764 C49.0132325,2.549134 48.4494213,3.180944 48.0672044,3.911974 C47.6849876,4.641364 47.485606,5.472024 47.485606,6.304324 C47.488088,7.382214 47.8392807,8.482654 48.5094012,9.349804 C48.8415659,9.778254 49.260598,10.149714 49.7507787,10.413754 C50.2417867,10.675744 50.8130438,10.831134 51.4310438,10.831134 C52.0469755,10.831134 52.6203008,10.675744 53.1092406,10.413754 C53.8509233,10.016054 54.4184574,9.382194 54.7948831,8.660594 C55.1775137,7.933254 55.3777225,7.112434 55.3777225,6.304324 C55.3760679,5.194044 55.0228068,4.084174 54.3526863,3.219074 C54.0209353,2.786524 53.5994213,2.419164 53.1075859,2.156764 C52.6145096,1.894364 52.0469755,1.743484 51.4310438,1.743484 L51.4310438,2.252704 L51.4310438,2.761924 C51.8806863,2.761924 52.2748992,2.868934 52.6265056,3.052614 C53.151847,3.332234 53.5820478,3.797174 53.8856703,4.377324 C54.1868108,4.951324 54.3526863,5.634794 54.3526863,6.304324 C54.354341,7.157944 54.0594052,8.067324 53.5419233,8.729474 C53.2846301,9.060344 52.9756301,9.332174 52.6227827,9.519954 C52.2748992,9.707324 51.8790317,9.812694 51.4310438,9.814334 C50.9830558,9.812694 50.5871884,9.707324 50.2380639,9.519954 C49.7147908,9.238694 49.2759032,8.767604 48.9788992,8.191554 C48.6715538,7.615504 48.5094012,6.943514 48.5094012,6.304324 C48.5073329,5.414624 48.8047506,4.497864 49.3222325,3.837354 C49.5770438,3.506484 49.8864574,3.236294 50.2355819,3.052614 C50.5871884,2.868934 50.9814012,2.761924 51.4310438,2.761924 L51.4310438,2.252704 Z" id="Fill-21" fill="#FEFEFE" mask="url(#mask-2)"></path>
                <path d="M45.6245325,20.844851 C44.4754,19.065041 42.0269783,19.085951 40.331408,20.165481 C38.6863036,21.208521 37.6182474,23.417191 38.7673799,25.195361 C39.9202353,26.975171 42.3901671,26.941141 44.0352715,25.894001 C45.7308418,24.818161 46.7753197,22.623021 45.6245325,20.844851" id="Fill-22" fill="#F89D1C" mask="url(#mask-2)"></path>
                <path d="M45.6245325,20.844851 L46.0568016,20.569331 C45.6861671,19.994921 45.184404,19.572211 44.6280386,19.299971 C44.0679502,19.030191 43.456155,18.910061 42.8402233,18.910061 C41.866894,18.911701 40.8857052,19.206491 40.0555004,19.734571 C39.4027534,20.148261 38.8410104,20.716931 38.433147,21.377031 C38.0277655,22.037541 37.7746088,22.793171 37.7746088,23.576271 C37.7746088,24.217511 37.9487574,24.871871 38.3367655,25.469241 C38.7074,26.046931 39.211645,26.468001 39.773388,26.738191 C40.3334763,27.007971 40.9473398,27.126461 41.5636851,27.126461 C42.5308096,27.124411 43.504139,26.833721 44.314902,26.320811 C44.9775767,25.899741 45.5471791,25.327381 45.9587655,24.665231 C46.3678699,24.006771 46.6210441,23.250731 46.6210441,22.473781 C46.6230948,21.830491 46.443155,21.169981 46.0568016,20.569331 L45.6245325,20.844851 L45.1918498,21.118731 C45.4756169,21.557021 45.5955767,22.008431 45.5955767,22.473781 C45.597645,23.030561 45.4119141,23.606611 45.0876088,24.135101 C44.7595807,24.659491 44.2962876,25.130581 43.7610185,25.469241 C43.1219221,25.872681 42.3186048,26.114171 41.5636851,26.114171 C41.0830185,26.114171 40.6213799,26.016591 40.217653,25.824711 C39.8180627,25.629551 39.4701791,25.342961 39.2017173,24.921481 C38.9179502,24.487291 38.8004723,24.037521 38.798404,23.576271 C38.798404,23.015391 38.981653,22.433601 39.3080265,21.907161 C39.6323317,21.382771 40.091902,20.915781 40.6093839,20.590241 C41.2737133,20.167531 42.0790988,19.924401 42.8402233,19.926041 C43.3188217,19.926041 43.7788056,20.021981 44.1759141,20.215091 C44.5759181,20.408611 44.9213197,20.701351 45.1918498,21.118731 L45.6245325,20.844851 Z" id="Fill-23" fill="#FEFEFE" mask="url(#mask-2)"></path>
                <path d="M64.0943767,9.11799 C62.9460715,7.33818 60.4972361,7.35909 58.8041478,8.43862 C57.1569751,9.48166 56.0885052,11.69033 57.2413606,13.47014 C58.3884249,15.24831 60.8604249,15.21428 62.5113205,14.16878 C64.2006859,13.0913 65.2435092,10.89575 64.0943767,9.11799" id="Fill-24" fill="#EEEB79" mask="url(#mask-2)"></path>
                <path d="M64.0943767,9.11799 L64.5254048,8.84616 C64.1564249,8.26806 63.6563165,7.8433 63.09871,7.57557 C62.5402763,7.30333 61.9259992,7.18484 61.3084129,7.18484 C60.3371518,7.18484 59.3559631,7.48332 58.52369,8.00771 C57.8767341,8.4214 57.3112683,8.99171 56.9034048,9.65017 C56.4980233,10.31232 56.2469349,11.06631 56.2436257,11.85146 C56.2436257,12.49065 56.4206699,13.14706 56.8074369,13.74402 C57.1797261,14.32007 57.6839711,14.74319 58.2432321,15.01092 C58.8078707,15.28316 59.4196659,15.40165 60.033943,15.40165 C60.9994129,15.40165 61.9748104,15.1085 62.7835052,14.59559 C63.4482482,14.17452 64.0195052,13.60052 64.4306779,12.94042 C64.840196,12.27991 65.0908963,11.52387 65.0908963,10.74692 C65.0933526,10.10568 64.9154811,9.44517 64.5254048,8.84616 L64.0943767,9.11799 L63.6621076,9.39146 C63.9462884,9.8318 64.0695574,10.28157 64.0695574,10.74692 C64.0695574,11.3037 63.8842402,11.88385 63.5578667,12.40824 C63.2298386,12.93263 62.7644771,13.40372 62.2296217,13.74238 C61.5901116,14.14992 60.7929992,14.38895 60.033943,14.38731 C59.5549309,14.38731 59.093706,14.29137 58.6916337,14.09785 C58.2903888,13.90269 57.9425052,13.6161 57.6723888,13.19872 C57.388208,12.76207 57.2703165,12.3123 57.2703165,11.85146 C57.2686618,11.28853 57.4560474,10.70674 57.7803526,10.18399 C58.1030032,9.65591 58.5600916,9.19097 59.0779871,8.86338 C59.7423165,8.44067 60.5551478,8.19713 61.3084129,8.20123 C61.7890795,8.20123 62.2469952,8.29717 62.6482402,8.48823 C63.0461759,8.68339 63.3919912,8.97285 63.6621076,9.39146 L64.0943767,9.11799 Z" id="Fill-25" fill="#FEFEFE" mask="url(#mask-2)"></path>
                <path d="M45.3811795,13.878049 C46.404561,12.023619 45.2111675,9.906379 43.4461032,8.949439 C41.7315048,8.019559 39.2619867,8.151579 38.2381916,10.006009 C37.21481,11.860849 38.4334365,13.994899 40.1480349,14.923139 C41.9151675,15.880079 44.357798,15.732889 45.3811795,13.878049" id="Fill-26" fill="#74CCD6" mask="url(#mask-2)"></path>
                <path d="M64.6279912,24.309023 C65.6493044,22.454593 64.4563245,20.339403 62.6908466,19.380413 C60.9762482,18.448483 58.5063165,18.582553 57.4829349,20.439033 C56.4595534,22.291823 57.6777663,24.424233 59.3927783,25.352063 C61.1615655,26.311053 63.6025414,26.163863 64.6279912,24.309023" id="Fill-27" fill="#F7991C" mask="url(#mask-2)"></path>
                <path d="M63.1212542,25.093968 C62.6910534,25.315778 62.1851538,25.425248 61.6536076,25.425248 C60.9743867,25.425248 60.2575233,25.241158 59.6399369,24.906188 C59.0740574,24.601968 58.5602984,24.138668 58.1979369,23.600748 C57.8306116,23.066928 57.6179932,22.464228 57.6179932,21.874648 C57.6179932,21.472438 57.7147884,21.076378 57.9327843,20.680318 C58.1933867,20.205538 58.5602984,19.876308 58.996704,19.654498 C59.4293867,19.432278 59.9373546,19.3252509 60.4680735,19.3252509 C61.147708,19.323218 61.8488526,19.505258 62.443688,19.824648 C63.0306639,20.142398 63.5522823,20.609388 63.9134028,21.145258 C64.2823827,21.679078 64.4908647,22.276448 64.4908647,22.864388 C64.4908647,23.267828 64.3957241,23.667988 64.1760735,24.064048 C63.9109209,24.540468 63.5543506,24.870108 63.1212542,25.093968 M53.5418406,30.468248 C53.284961,30.799528 52.975961,31.072998 52.6227,31.258728 C52.2748165,31.446098 51.878949,31.553518 51.430961,31.555568 C50.9833867,31.553518 50.5875193,31.446098 50.2379811,31.258728 C49.714708,30.979108 49.2758205,30.506378 48.9788165,29.930328 C48.6714711,29.356328 48.5093078,28.682698 48.5093078,28.043098 C48.5072502,27.153398 48.8046679,26.238688 49.3225635,25.578178 C49.576961,25.248948 49.8863747,24.978758 50.2359129,24.793438 C50.5875193,24.606068 50.9813185,24.502338 51.430961,24.502338 C51.8810173,24.502338 52.2748165,24.606068 52.6264229,24.793438 C53.1517643,25.068958 53.5819651,25.539638 53.8855876,26.116098 C54.1867281,26.693788 54.3530242,27.373568 54.3530242,28.043098 C54.3546719,28.899178 54.0597361,29.806098 53.5418406,30.468248 M64.7651177,20.574948 C64.3014108,19.899268 63.6639691,19.328958 62.9363506,18.932898 C62.1888767,18.529048 61.3255795,18.308878 60.4680735,18.308878 C59.7962984,18.308878 59.1265916,18.444998 58.5238968,18.750858 C57.9232703,19.057128 57.3937924,19.535598 57.0306036,20.196108 C56.7298767,20.733618 56.5966799,21.313768 56.5966799,21.874648 C56.5966799,22.058328 56.6103305,22.240368 56.6392863,22.418308 C57.0132301,25.760218 53.1075032,23.897998 53.1075032,23.897998 C53.0549691,23.865198 53.1650012,23.928338 53.1075032,23.897998 C52.6148406,23.635598 52.0468928,23.486358 51.430961,23.487998 C50.815443,23.486358 50.2454269,23.635598 49.7531779,23.897998 C49.0135635,24.289958 48.4497522,24.921768 48.0671217,25.650748 C47.6849048,26.380138 47.4859369,27.210798 47.4859369,28.043098 C47.4880052,29.122628 47.8396116,30.225118 48.5093185,31.090218 C48.8414831,31.520718 49.2605153,31.890128 49.7511096,32.154578 C50.241704,32.418618 50.8133747,32.571548 51.430961,32.5699211 C52.0468928,32.571548 52.6202181,32.418618 53.1091578,32.154578 C53.8508406,31.758108 54.4183747,31.124658 54.7948004,30.399368 C55.0574711,29.902038 55.2278968,29.358378 55.3106277,28.806928 C55.7759892,25.114878 59.9294952,26.133318 59.9294952,26.133318 C60.485447,26.330118 61.0687,26.439588 61.6536076,26.439588 C62.3278647,26.439588 62.9959169,26.303468 63.5932341,25.995558 C64.193447,25.689288 64.7167201,25.205078 65.0757723,24.552358 C65.3789811,24.006648 65.5159008,23.428548 65.5159008,22.864388 C65.5159008,22.037418 65.2263426,21.250628 64.7651177,20.574948" id="Fill-28" fill="#FEFEFE" mask="url(#mask-2)"></path>
                <path d="M53.5417578,19.597016 C53.2848783,19.931986 52.9758783,20.203816 52.6226173,20.389136 C52.2751474,20.578966 51.8788663,20.684336 51.4308783,20.684336 C50.983304,20.684336 50.5874365,20.578966 50.2378984,20.389136 C49.7146253,20.109926 49.2757378,19.635146 48.9787337,19.061146 C48.671802,18.486736 48.5092289,17.813106 48.5092289,17.171866 C48.5075811,16.283806 48.8045851,15.370736 49.3224807,14.708586 C49.577292,14.375666 49.886292,14.107526 50.2358301,13.924256 C50.5874365,13.736476 50.9812357,13.631106 51.4308783,13.631106 C51.8809345,13.631106 52.2751474,13.736476 52.6263402,13.924256 C53.1520952,14.199776 53.582296,14.670456 53.8855048,15.246506 C54.187059,15.822556 54.3529415,16.505616 54.3529415,17.171866 C54.3545892,18.027536 54.0596534,18.936506 53.5417578,19.597016 M42.4094847,14.9939628 C41.7236454,14.995996 41.0092639,14.810266 40.3954004,14.475296 C39.8274526,14.169026 39.3141072,13.705726 38.9509185,13.169856 C38.5856614,12.633986 38.3751112,12.032926 38.3751112,11.443756 C38.3751112,11.043596 38.4698382,10.643436 38.6882478,10.249426 C38.9509185,9.774236 39.3141072,9.445006 39.7463763,9.223196 C40.1827819,9.003436 40.6928181,8.893966 41.2218823,8.893966 C41.897794,8.893966 42.6043161,9.073956 43.1991514,9.393756 C43.7844727,9.713146 44.3056775,10.178086 44.6705209,10.713956 C45.0374325,11.248186 45.2459145,11.847196 45.2459145,12.433086 C45.2459145,12.834886 45.1511876,13.235046 44.9331916,13.633156 C44.6688663,14.107526 44.3073321,14.437166 43.8767177,14.662666 C43.4461032,14.882836 42.938549,14.9939628 42.4094847,14.9939628 M54.3529345,14.090306 C54.0207699,13.657756 53.5996695,13.286706 53.1074205,13.026356 C52.6147578,12.766006 52.04681,12.612666 51.4308783,12.616766 C50.8153602,12.612666 50.2453442,12.766006 49.7530952,13.026356 C49.7530952,13.026356 46.543549,14.390836 46.2519225,12.057936 L46.2481996,12.059986 C46.1766373,11.370776 45.912312,10.713956 45.5201675,10.143646 C45.054806,9.467966 44.4194325,8.901756 43.6897458,8.503646 C42.9443402,8.099796 42.0789747,7.877986 41.2218823,7.877986 C40.5517618,7.877986 39.8795731,8.013696 39.2793602,8.319966 C38.6783201,8.626236 38.1476012,9.106346 37.788549,9.763166 C37.4869948,10.304776 37.3500751,10.882876 37.3500751,11.443756 C37.3500751,12.274006 37.6417016,13.064486 38.0992036,13.738116 C38.5608422,14.413796 39.1883562,14.980416 39.9027378,15.367046 C40.671308,15.784426 41.5424647,16.010336 42.4094847,16.010336 C42.973296,16.010336 43.5309024,15.907016 44.0545892,15.694636 L44.0450751,15.704066 C44.0450751,15.704066 46.9956735,14.356806 47.5226695,17.774976 L47.526806,17.774976 C47.6306333,18.653196 47.9669345,19.514606 48.5092357,20.218986 C48.8414004,20.647846 49.2604325,21.018896 49.7510269,21.284986 C50.2416213,21.549436 50.813292,21.702366 51.4308783,21.702366 C52.04681,21.702366 52.6201353,21.549436 53.1090751,21.284986 C53.8507578,20.888926 54.418292,20.253836 54.7947177,19.529776 C55.1773482,18.804486 55.377557,17.983256 55.377557,17.171866 C55.3763161,16.064046 55.0226414,14.953766 54.3529345,14.090306" id="Fill-29" fill="#FEFEFE" mask="url(#mask-2)"></path>
                <g id="Group-37" opacity="0.500339674" mask="url(#mask-2)" fill="#FFFFFF">
                    <g transform="translate(30.610442, 67.304780)">
                        <path d="M5.48468795,5.72237 C5.01229438,5.50425 4.65034659,5.39478 4.00504538,5.39478 C3.01310161,5.39478 2.28879237,6.19059 2.28879237,7.84453 C2.28879237,9.3111 2.91878835,9.99744 3.75312972,9.99744 C4.44558755,9.99744 4.98085663,9.59154 5.48468795,8.96793 L5.48468795,5.72237 Z M5.75190884,11.51034 L5.59472008,10.46525 C5.059451,11.10526 4.31983655,11.66655 3.26501727,11.66655 C1.67534257,11.66655 0.400045382,10.49682 0.400045382,7.95359 C0.400045382,5.1455 1.95910964,3.89705 3.72127831,3.89705 C4.44558755,3.89705 5.02801325,4.0221 5.48468795,4.1779 L5.48468795,0.54284 L7.37343494,0.24641 L7.37343494,11.51034 L5.75190884,11.51034 Z" id="Fill-30"></path>
                        <path d="M9.37093173,11.51034 L11.2596787,11.51034 L11.2596787,3.97536 L9.37093173,3.97536 L9.37093173,11.51034 Z M10.3310241,2.71133 C9.70102811,2.71133 9.19761044,2.27427 9.19761044,1.65066 C9.19761044,1.01106 9.70102811,0.55801 10.3310241,0.55801 C10.9448876,0.55801 11.4487189,1.01106 11.4487189,1.65066 C11.4487189,2.27427 10.9448876,2.71133 10.3310241,2.71133 L10.3310241,2.71133 Z" id="Fill-31"></path>
                        <path d="M16.044794,5.020491 C15.2104526,5.020491 14.7223402,5.660501 14.7223402,6.487061 C14.7223402,7.266881 15.2261715,7.859741 16.044794,7.859741 C16.8791353,7.859741 17.382553,7.250891 17.382553,6.440731 C17.382553,5.628931 16.8472839,5.020491 16.044794,5.020491 L16.044794,5.020491 Z M14.0927578,12.275441 C14.0927578,12.836731 14.7694968,13.242221 16.2023964,13.242221 C17.5558743,13.242221 18.3273402,12.789991 18.3273402,12.227881 C18.3273402,11.822801 17.9964165,11.588281 17.0524566,11.448471 L16.0286614,11.323421 C15.5095249,11.260691 15.2733281,11.213951 14.8956614,11.136461 C14.3446735,11.525961 14.0927578,11.884711 14.0927578,12.275441 L14.0927578,12.275441 Z M20.0427659,3.865931 L20.2942679,5.363661 L18.9093522,5.457551 C19.0508221,5.753161 19.1136976,6.096741 19.1136976,6.440731 C19.1136976,8.062691 17.7134767,9.029881 16.0762317,9.029881 C15.8553402,9.029881 15.6509948,9.014301 15.4623683,8.983551 C15.2733281,9.124181 15.1475771,9.263581 15.1475771,9.388631 C15.1475771,9.638731 15.3837739,9.700641 16.5639305,9.872431 L17.5397418,9.966321 C19.0983924,10.184441 20.0742036,10.668241 20.0742036,11.822801 C20.0742036,13.445581 18.2797699,14.350041 16.0762317,14.350041 C14.0137498,14.350041 12.4559265,13.725611 12.4559265,12.477981 C12.4559265,11.776471 12.944039,11.229531 13.8884124,10.699401 C13.5889265,10.465291 13.4478703,10.184441 13.4478703,9.888011 C13.4478703,9.467351 13.7783803,9.060631 14.407549,8.686711 C13.5103321,8.265231 12.9754767,7.485821 12.9754767,6.487061 C12.9754767,4.848701 14.3289546,3.819191 16.0286614,3.819191 C16.8948542,3.819191 17.6344687,4.068471 18.1854566,4.521111 L20.0427659,3.865931 Z" id="Fill-32"></path>
                        <path d="M21.50549,11.51034 L23.3946506,11.51034 L23.3946506,3.97536 L21.50549,3.97536 L21.50549,11.51034 Z M22.465996,2.71133 C21.836,2.71133 21.3321687,2.27427 21.3321687,1.65066 C21.3321687,1.01106 21.836,0.55801 22.465996,0.55801 C23.0794458,0.55801 23.5832771,1.01106 23.5832771,1.65066 C23.5832771,2.27427 23.0794458,2.71133 22.465996,2.71133 L22.465996,2.71133 Z" id="Fill-33"></path>
                        <path d="M28.289012,11.635759 C26.7940643,11.635759 25.7864016,11.088819 25.7864016,9.372969 L25.7864016,5.504209 L24.7158635,5.504209 L24.7158635,3.975319 L25.7864016,3.975319 L25.7864016,1.587889 L27.6432972,1.307859 L27.6432972,3.975319 L29.2023614,3.975319 L29.4381446,5.504209 L27.6432972,5.504209 L27.6432972,9.060959 C27.6432972,9.669809 27.9274779,9.997399 28.6509598,9.997399 C28.8714378,9.997399 29.0757831,9.981819 29.2491044,9.935489 L29.4857149,11.510299 C29.1866426,11.573029 28.84,11.635759 28.289012,11.635759" id="Fill-34"></path>
                        <path d="M35.0565671,7.750353 C32.8687478,8.015623 32.3491976,8.655633 32.3491976,9.373133 C32.3491976,9.918843 32.6954265,10.246433 33.2778522,10.246433 C33.9231534,10.246433 34.5370169,9.950823 35.0565671,9.435863 L35.0565671,7.750353 Z M35.323788,11.510463 L35.1665992,10.527283 C34.5527357,11.167293 33.7659647,11.666673 32.632551,11.666673 C31.3419486,11.666673 30.4757558,10.886033 30.4757558,9.575673 C30.4757558,7.750353 31.9868361,6.955363 35.0565671,6.658933 L35.0565671,6.440813 C35.0565671,5.629013 34.5837598,5.317003 33.7498321,5.317003 C32.8687478,5.317003 32.0339928,5.566283 31.2157839,5.925033 L30.9795871,4.427303 C31.8610851,4.084133 32.7901534,3.819273 34.0017478,3.819273 C35.9695028,3.819273 36.9449004,4.536773 36.9449004,6.346513 L36.9449004,11.510463 L35.323788,11.510463 Z" id="Fill-35"></path>
                        <polygon id="Fill-36" points="38.8957783 11.510422 38.8957783 0.542922 40.784939 0.246082 40.784939 11.510422"></polygon>
                    </g>
                </g>
            </g>
        </g>
    </g>
</svg>